<svg xmlns="http://www.w3.org/2000/svg" viewBox="0 0 200 200" width="200" height="200">
<defs>
<clipPath id="clipBo"><ellipse cx="100" cy="112" rx="46" ry="42"></ellipse></clipPath>
</defs>
<g>

      <ellipse cx="66" cy="72" rx="20" ry="12" fill="#DFF3FB" transform="rotate(-8 66 72)"></ellipse>
      <ellipse cx="134" cy="72" rx="20" ry="12" fill="#DFF3FB" transform="rotate(8 134 72)"></ellipse>
      <path d="M88 74 Q80 64 70 64" stroke="#3A2A0A" stroke-width="4" fill="none" stroke-linecap="round"></path>
      <circle cx="68" cy="64" r="5" fill="#3A2A0A"></circle>
      <path d="M112 74 Q120 64 130 64" stroke="#3A2A0A" stroke-width="4" fill="none" stroke-linecap="round"></path>
      <circle cx="132" cy="64" r="5" fill="#3A2A0A"></circle>
      <ellipse cx="100" cy="112" rx="46" ry="42" fill="#FDC73B"></ellipse>
      <g clip-path="url(#clipBo)">
        <rect x="50" y="128" width="100" height="13" fill="#3A2A0A"></rect>
        <rect x="50" y="147" width="100" height="11" fill="#3A2A0A"></rect>
      </g>
      <path d="M79 100 Q86 107 93 100" stroke="#3A2A0A" stroke-width="4.5" fill="none" stroke-linecap="round"></path>
      <path d="M107 100 Q114 107 121 100" stroke="#3A2A0A" stroke-width="4.5" fill="none" stroke-linecap="round"></path>
      <circle cx="68" cy="112" r="7" fill="#FF9FB0"></circle><circle cx="132" cy="112" r="7" fill="#FF9FB0"></circle>
      <path d="M94 120 Q100 124 106 120" stroke="#3A2A0A" stroke-width="4" fill="none" stroke-linecap="round"></path>
      <path d="M146 54 h14 l-14 14 h14" stroke="#3A2A0A" stroke-width="3.5" fill="none" stroke-linejoin="round" stroke-linecap="round"></path>
      <path d="M168 36 h9 l-9 9 h9" stroke="#3A2A0A" stroke-width="3" fill="none" stroke-linejoin="round" stroke-linecap="round"></path>
    
</g>
</svg>