<svg xmlns="http://www.w3.org/2000/svg" viewBox="0 0 260 300" width="260" height="300">
<g>

<path d="M112 80 L108 52" stroke="#B0743A" stroke-width="6" fill="none" stroke-linecap="round"></path>
<circle cx="108" cy="50" r="7.5" fill="#EFCF7E"></circle>
<path d="M148 80 L152 52" stroke="#B0743A" stroke-width="6" fill="none" stroke-linecap="round"></path>
<circle cx="152" cy="50" r="7.5" fill="#EFCF7E"></circle>
<path d="M70 150 Q40 158 38 182" stroke="#C9874A" stroke-width="19" fill="none" stroke-linecap="round"></path>
<path d="M190 150 Q220 158 222 182" stroke="#C9874A" stroke-width="19" fill="none" stroke-linecap="round"></path>
<rect x="68" y="78" width="124" height="150" rx="62" fill="#C9874A"></rect>
<ellipse cx="130" cy="178" rx="48" ry="30" fill="#BE7E43"></ellipse>
<circle cx="92" cy="146" r="9" fill="#E0A05A"></circle>
<circle cx="168" cy="146" r="9" fill="#E0A05A"></circle>
<path d="M110 244 Q130 250 150 244" stroke="#E2C19D" stroke-width="4" fill="none" stroke-linecap="round"></path>
<circle cx="46" cy="116" r="4" fill="#A4D037"></circle>
<circle cx="216" cy="122" r="4" fill="#EFCF7E"></circle>
<circle cx="202" cy="86" r="3" fill="#A4D037"></circle>
<circle cx="58" cy="84" r="3" fill="#EFCF7E"></circle>
<path d="M98 114 Q112 106 126 114" stroke="#3A260C" stroke-width="4" fill="none" stroke-linecap="round"></path>
<circle cx="112" cy="132" r="14" fill="#fff"></circle>
<circle cx="113" cy="134" r="7" fill="#3A260C"></circle>
<circle cx="116" cy="130" r="2.4" fill="#fff"></circle>
<path d="M138 132 Q150 124 162 132" stroke="#3A260C" stroke-width="5" fill="none" stroke-linecap="round"></path>
<path d="M106 164 Q130 180 154 160" stroke="#6B4A12" stroke-width="6" fill="none" stroke-linecap="round"></path>
<path d="M170 150 l2 -6 2 6 6 2 -6 2 -2 6 -2 -6 -6 -2 Z" fill="#EFCF7E"></path>

</g>
</svg>