<svg xmlns="http://www.w3.org/2000/svg" viewBox="0 0 260 270" width="260" height="270" role="img" aria-label="Charly – Traurig">
<ellipse cx="130" cy="252" rx="58" ry="10" fill="#114A2E" opacity="0.10"></ellipse>
<path d="M74 80 L66 50 L104 76 Z" fill="#3DBE74"></path><path d="M186 80 L194 50 L156 76 Z" fill="#3DBE74"></path>
<rect x="58" y="74" width="144" height="162" rx="66" fill="#3DBE74"></rect>
<ellipse cx="130" cy="214" rx="52" ry="24" fill="#2A9E5C"></ellipse>
<ellipse cx="130" cy="214" rx="52" ry="24" fill="#2A9E5C"></ellipse>
<circle cx="80" cy="176" r="8" fill="#8FE0B0"></circle><circle cx="180" cy="176" r="8" fill="#8FE0B0"></circle>
<circle cx="104" cy="152" r="20" fill="#fff"></circle><circle cx="156" cy="152" r="20" fill="#fff"></circle>
<circle cx="102" cy="160" r="9" fill="#114A2E"></circle><circle cx="154" cy="160" r="9" fill="#114A2E"></circle>
<circle cx="105" cy="157" r="3" fill="#fff"></circle><circle cx="157" cy="157" r="3" fill="#fff"></circle>
<path d="M84 152 A20 20 0 0 0 124 152 Z" fill="#3DBE74"></path><path d="M136 152 A20 20 0 0 0 176 152 Z" fill="#3DBE74"></path>
<path d="M86 142 L102 134" stroke="#114A2E" stroke-width="5" fill="none" stroke-linecap="round"></path>
<path d="M174 142 L158 134" stroke="#114A2E" stroke-width="5" fill="none" stroke-linecap="round"></path>
<path d="M110 200 Q130 184 150 200" stroke="#114A2E" stroke-width="6" fill="none" stroke-linecap="round"></path>
<path d="M160 166 Q153 180 160 185 Q167 180 160 166 Z" fill="#BFE9D2"></path>
</svg>