<svg xmlns="http://www.w3.org/2000/svg" viewBox="0 0 240 270" width="240" height="270">
<g>

<circle cx="80" cy="88" r="18" fill="#7C8BF5"></circle>
<circle cx="160" cy="88" r="18" fill="#7C8BF5"></circle>
<rect x="56" y="78" width="128" height="160" rx="62" fill="#7C8BF5"></rect>
<ellipse cx="120" cy="184" rx="58" ry="30" fill="#6979EE"></ellipse>
<path d="M84 120 L112 130" stroke="#232A6E" stroke-width="5.5" stroke-linecap="round"></path>
<path d="M156 120 L128 130" stroke="#232A6E" stroke-width="5.5" stroke-linecap="round"></path>
<circle cx="100" cy="148" r="13" fill="#fff"></circle>
<circle cx="140" cy="148" r="13" fill="#fff"></circle>
<circle cx="99" cy="153" r="6.5" fill="#1E2350"></circle>
<circle cx="139" cy="153" r="6.5" fill="#1E2350"></circle>
<circle cx="101" cy="150" r="2.2" fill="#fff"></circle>
<circle cx="141" cy="150" r="2.2" fill="#fff"></circle>
<path d="M87 148 A13 13 0 0 0 113 148 Z" fill="#7C8BF5"></path>
<path d="M127 148 A13 13 0 0 0 153 148 Z" fill="#7C8BF5"></path>
<circle cx="100" cy="146" r="20" fill="none" stroke="#232A6E" stroke-width="5"></circle>
<circle cx="140" cy="146" r="20" fill="none" stroke="#232A6E" stroke-width="5"></circle>
<path d="M119 143 Q120 139 121 143" stroke="#232A6E" stroke-width="5" fill="none" stroke-linecap="round"></path>
<path d="M80 142 L66 138" stroke="#232A6E" stroke-width="5" stroke-linecap="round"></path>
<path d="M160 142 L174 138" stroke="#232A6E" stroke-width="5" stroke-linecap="round"></path>
<path d="M150 158 Q144 172 151 176 Q158 172 152 158 Z" fill="#9FE0EC"></path>
<circle cx="78" cy="172" r="9" fill="#CB97CC"></circle>
<circle cx="162" cy="172" r="9" fill="#CB97CC"></circle>
<path d="M104 192 Q120 178 136 192" stroke="#1E2350" stroke-width="5.5" fill="none" stroke-linecap="round"></path>
  <path d="M150 92 l-15 -8 0 17 Z" fill="#F272A8"></path>
<path d="M150 92 l15 -8 0 17 Z" fill="#F272A8"></path>
<circle cx="150" cy="93" r="5" fill="#DB4E8E"></circle>
<path d="M83 131 l-8 -5 M89 127 l-6 -6" stroke="#232A6E" stroke-width="3.4" stroke-linecap="round"></path>
<path d="M157 131 l8 -5 M151 127 l6 -6" stroke="#232A6E" stroke-width="3.4" stroke-linecap="round"></path>

</g>
</svg>