<svg xmlns="http://www.w3.org/2000/svg" viewBox="0 0 200 200" width="200" height="200">
<g>

      <path d="M62 118 Q42 100 46 76" stroke="#6C5CE7" stroke-width="13" fill="none" stroke-linecap="round"></path>
      <path d="M138 118 Q158 100 154 76" stroke="#6C5CE7" stroke-width="13" fill="none" stroke-linecap="round"></path>
      <path d="M84 134 Q72 152 80 166" stroke="#5247C4" stroke-width="14" fill="none" stroke-linecap="round"></path>
      <path d="M116 134 Q128 152 120 166" stroke="#5247C4" stroke-width="14" fill="none" stroke-linecap="round"></path>
      <path d="M100 140 L100 168" stroke="#6C5CE7" stroke-width="14" stroke-linecap="round" fill="none"></path>
      <ellipse cx="100" cy="96" rx="44" ry="42" fill="#6C5CE7"></ellipse>
      <path d="M58 102 A42 40 0 0 0 142 102 Z" fill="#5247C4"></path>
      <ellipse cx="84" cy="78" rx="10" ry="13" fill="#7D6DEA"></ellipse>
      <circle cx="86" cy="90" r="13" fill="#fff"></circle><circle cx="114" cy="90" r="13" fill="#fff"></circle>
      <circle cx="88" cy="87" r="7" fill="#2E2A5C"></circle><circle cx="112" cy="87" r="7" fill="#2E2A5C"></circle>
      <circle cx="90" cy="84" r="2.4" fill="#fff"></circle><circle cx="114" cy="84" r="2.4" fill="#fff"></circle>
      <circle cx="68" cy="104" r="6" fill="#FF9FB0"></circle><circle cx="132" cy="104" r="6" fill="#FF9FB0"></circle>
      <path d="M86 108 Q100 124 114 108 Q100 116 86 108 Z" fill="#2E2A5C"></path>
      <path d="M32 44 l3 8 8 3 -8 3 -3 8 -3 -8 -8 -3 8 -3 Z" fill="#FDC73B"></path>
      <path d="M164 48 l2.4 6 6 2.4 -6 2.4 -2.4 6 -2.4 -6 -6 -2.4 6 -2.4 Z" fill="#FDC73B"></path>
    
</g>
</svg>