<svg xmlns="http://www.w3.org/2000/svg" viewBox="0 0 200 280" width="200" height="280" role="img" aria-label="Junior – Traurig">
<ellipse cx="100" cy="262" rx="50" ry="8" fill="#3A5A10" opacity="0.10"></ellipse>
<path d="M56 150 Q40 156 38 174" stroke="#A4D037" stroke-width="14" fill="none" stroke-linecap="round"></path>
<path d="M144 150 Q160 156 162 174" stroke="#A4D037" stroke-width="14" fill="none" stroke-linecap="round"></path>
<rect x="56" y="92" width="88" height="170" rx="44" fill="#A4D037"></rect>
<path d="M56 212 H144 V218 Q144 262 100 262 Q56 262 56 218 Z" fill="#7FB024"></path>
<path d="M100 92 L100 62" stroke="#7FB024" stroke-width="6" fill="none" stroke-linecap="round"></path>
<path d="M100 78 Q72 72 66 44 Q92 44 100 74 Z" fill="#8FC02E"></path>
<path d="M100 72 Q128 62 140 36 Q108 34 100 68 Z" fill="#A4D037"></path>
<circle cx="70" cy="156" r="7" fill="#FF9AA8"></circle><circle cx="130" cy="156" r="7" fill="#FF9AA8"></circle>
<circle cx="84" cy="140" r="13" fill="#fff"></circle><circle cx="116" cy="140" r="13" fill="#fff"></circle>
<circle cx="82" cy="146" r="7" fill="#21400A"></circle><circle cx="114" cy="146" r="7" fill="#21400A"></circle>
<circle cx="84" cy="143" r="2.4" fill="#fff"></circle><circle cx="116" cy="143" r="2.4" fill="#fff"></circle>
<path d="M71 140 A13 13 0 0 0 97 140 Z" fill="#A4D037"></path><path d="M103 140 A13 13 0 0 0 129 140 Z" fill="#A4D037"></path>
<path d="M72 130 L86 125" stroke="#21400A" stroke-width="4" stroke-linecap="round"></path>
<path d="M128 130 L114 125" stroke="#21400A" stroke-width="4" stroke-linecap="round"></path>
<path d="M88 170 Q100 158 112 170" stroke="#21400A" stroke-width="5" fill="none" stroke-linecap="round"></path>
<path d="M120 150 Q114 164 121 168 Q128 164 124 150 Z" fill="#BFE89A"></path>
</svg>