<svg xmlns="http://www.w3.org/2000/svg" viewBox="0 0 260 250" width="260" height="250" role="img" aria-label="Li – Traurig">
<ellipse cx="130" cy="236" rx="60" ry="9" fill="#7A5A0A" opacity="0.10"></ellipse>
<path d="M98 92 L90 46 L116 84 Z" fill="#E8A91E"></path>
<path d="M130 84 L130 38 L148 80 Z" fill="#E8A91E"></path>
<path d="M162 92 L178 50 L144 84 Z" fill="#E8A91E"></path>
<path d="M110 86 Q102 60 114 48" stroke="#E8A91E" stroke-width="6" fill="none" stroke-linecap="round"></path>
<circle cx="114" cy="46" r="7" fill="#FFE36B"></circle>
<path d="M150 86 Q158 60 146 48" stroke="#E8A91E" stroke-width="6" fill="none" stroke-linecap="round"></path>
<g><circle cx="140" cy="44" r="6" fill="#FF8FB0"></circle><circle cx="152" cy="44" r="6" fill="#FF8FB0"></circle><circle cx="143" cy="54" r="6" fill="#FF8FB0"></circle><circle cx="149" cy="54" r="6" fill="#FF8FB0"></circle><circle cx="146" cy="47" r="4.5" fill="#FFE36B"></circle></g>
<ellipse cx="130" cy="150" rx="80" ry="70" fill="#FDC73B"></ellipse>
<ellipse cx="130" cy="180" rx="68" ry="34" fill="#E8A91E" opacity="0.45"></ellipse>
<path d="M54 150 q-20 -6 -18 -30 q16 8 26 -2" stroke="#FDC73B" stroke-width="13" fill="none" stroke-linecap="round" stroke-linejoin="round"></path>
<path d="M206 150 q20 -6 18 -30 q-16 8 -26 -2" stroke="#FDC73B" stroke-width="13" fill="none" stroke-linecap="round" stroke-linejoin="round"></path>
<path d="M196 66 L186 88 L196 86 L190 106 L210 80 L199 82 Z" fill="#FF8A1E"></path>
<path d="M86 122 L106 130" stroke="#6E4A08" stroke-width="5" stroke-linecap="round"></path>
<path d="M182 128 L160 134" stroke="#6E4A08" stroke-width="5" stroke-linecap="round"></path>
<circle cx="108" cy="144" r="23" fill="#fff"></circle>
<circle cx="166" cy="150" r="15" fill="#fff"></circle>
<circle cx="106" cy="152" r="9" fill="#3A2A0A"></circle>
<circle cx="164" cy="156" r="6" fill="#3A2A0A"></circle>
<circle cx="109" cy="149" r="3" fill="#fff"></circle>
<circle cx="166" cy="153" r="2.2" fill="#fff"></circle>
<path d="M85 144 A23 23 0 0 0 131 144 Z" fill="#FDC73B"></path>
<path d="M151 150 A15 15 0 0 0 181 150 Z" fill="#FDC73B"></path>
<path d="M104 194 Q130 176 156 194" stroke="#6E4A08" stroke-width="6" fill="none" stroke-linecap="round"></path>
<path d="M100 166 Q94 180 101 184 Q108 180 102 166 Z" fill="#9FE0EC"></path>
<circle cx="84" cy="174" r="8" fill="#FF8FB0" opacity="0.5"></circle>
<circle cx="180" cy="178" r="8" fill="#FF8FB0" opacity="0.5"></circle>
</svg>