<svg xmlns="http://www.w3.org/2000/svg" viewBox="0 0 260 250" width="260" height="250" role="img" aria-label="Li – Ueberrascht">
<ellipse cx="130" cy="236" rx="60" ry="9" fill="#7A5A0A" opacity="0.10"></ellipse>
<path d="M98 92 L90 46 L116 84 Z" fill="#E8A91E"></path>
<path d="M130 84 L130 38 L148 80 Z" fill="#E8A91E"></path>
<path d="M162 92 L178 50 L144 84 Z" fill="#E8A91E"></path>
<path d="M110 86 Q102 60 114 48" stroke="#E8A91E" stroke-width="6" fill="none" stroke-linecap="round"></path>
<circle cx="114" cy="46" r="7" fill="#FFE36B"></circle>
<path d="M150 86 Q158 60 146 48" stroke="#E8A91E" stroke-width="6" fill="none" stroke-linecap="round"></path>
<g><circle cx="140" cy="44" r="6" fill="#FF8FB0"></circle><circle cx="152" cy="44" r="6" fill="#FF8FB0"></circle><circle cx="143" cy="54" r="6" fill="#FF8FB0"></circle><circle cx="149" cy="54" r="6" fill="#FF8FB0"></circle><circle cx="146" cy="47" r="4.5" fill="#FFE36B"></circle></g>
<ellipse cx="130" cy="150" rx="80" ry="70" fill="#FDC73B"></ellipse>
<ellipse cx="130" cy="180" rx="68" ry="34" fill="#E8A91E" opacity="0.45"></ellipse>
<path d="M54 150 q-20 -6 -18 -30 q16 8 26 -2" stroke="#FDC73B" stroke-width="13" fill="none" stroke-linecap="round" stroke-linejoin="round"></path>
<path d="M206 150 q20 -6 18 -30 q-16 8 -26 -2" stroke="#FDC73B" stroke-width="13" fill="none" stroke-linecap="round" stroke-linejoin="round"></path>
<path d="M196 66 L186 88 L196 86 L190 106 L210 80 L199 82 Z" fill="#FF8A1E"></path>
<path d="M84 110 l-10 -4 M90 104 l-8 -7" stroke="#3A2A0A" stroke-width="3" stroke-linecap="round"></path>
<path d="M86 118 Q104 108 122 118" stroke="#6E4A08" stroke-width="5" fill="none" stroke-linecap="round"></path>
<path d="M148 120 Q166 112 182 120" stroke="#6E4A08" stroke-width="5" fill="none" stroke-linecap="round"></path>
<circle cx="108" cy="146" r="24" fill="#fff"></circle>
<circle cx="166" cy="148" r="20" fill="#fff"></circle>
<circle cx="108" cy="148" r="8" fill="#3A2A0A"></circle>
<circle cx="166" cy="150" r="7" fill="#3A2A0A"></circle>
<circle cx="111" cy="144" r="3" fill="#fff"></circle>
<circle cx="169" cy="146" r="2.6" fill="#fff"></circle>
<ellipse cx="132" cy="190" rx="11" ry="14" fill="#6E4A08"></ellipse>
<circle cx="84" cy="176" r="8" fill="#FF8FB0" opacity="0.55"></circle>
<circle cx="180" cy="178" r="8" fill="#FF8FB0" opacity="0.55"></circle>
</svg>