<svg xmlns="http://www.w3.org/2000/svg" viewBox="0 0 260 250" width="260" height="250">
<g>

    <path d="M98 92 L90 46 L116 84 Z" fill="#E8A91E"></path>
    <path d="M130 84 L130 38 L148 80 Z" fill="#E8A91E"></path>
    <path d="M162 92 L178 50 L144 84 Z" fill="#E8A91E"></path>
    <path d="M110 86 Q102 60 114 48" stroke="#E8A91E" stroke-width="6" fill="none" stroke-linecap="round"></path>
    <circle cx="114" cy="46" r="7" fill="#FFE36B"></circle>
    <path d="M150 86 Q158 60 146 48" stroke="#E8A91E" stroke-width="6" fill="none" stroke-linecap="round"></path>
    <g><circle cx="140" cy="44" r="6" fill="#FF9FB0"></circle><circle cx="152" cy="44" r="6" fill="#FF9FB0"></circle><circle cx="143" cy="54" r="6" fill="#FF9FB0"></circle><circle cx="149" cy="54" r="6" fill="#FF9FB0"></circle><circle cx="146" cy="47" r="4.5" fill="#FFE36B"></circle></g>
    <ellipse cx="130" cy="150" rx="80" ry="70" fill="#FDC73B"></ellipse>
    <ellipse cx="130" cy="180" rx="68" ry="34" fill="#F4BA2E"></ellipse>
    <path d="M54 150 q-20 -6 -18 -30 q16 8 26 -2" stroke="#FDC73B" stroke-width="13" fill="none" stroke-linecap="round" stroke-linejoin="round"></path>
    <path d="M206 150 q20 -6 18 -30 q-16 8 -26 -2" stroke="#FDC73B" stroke-width="13" fill="none" stroke-linecap="round" stroke-linejoin="round"></path>
    <path d="M196 66 L186 88 L196 86 L190 106 L210 80 L199 82 Z" fill="#FF8A1E"></path>
    <circle cx="108" cy="142" r="26" fill="#fff"></circle>
    <circle cx="166" cy="150" r="15" fill="#fff"></circle>
    <circle cx="116" cy="146" r="9" fill="#3A2A0A"></circle>
    <circle cx="160" cy="150" r="6" fill="#3A2A0A"></circle>
    <circle cx="119" cy="142" r="3" fill="#fff"></circle>
    <circle cx="162" cy="147" r="2.2" fill="#fff"></circle>
    <path d="M84 128 l-10 -5 M88 122 l-8 -8 M95 118 l-5 -9" stroke="#3A2A0A" stroke-width="3" stroke-linecap="round"></path>
    <path d="M180 142 l9 -4 M178 137 l7 -7" stroke="#3A2A0A" stroke-width="2.6" stroke-linecap="round"></path>
    <path d="M84 112 L102 104 L94 116 L112 110" stroke="#6E4A08" stroke-width="5" fill="none" stroke-linecap="round" stroke-linejoin="round"></path>
    <path d="M152 122 L166 116 L160 126 L178 122" stroke="#6E4A08" stroke-width="5" fill="none" stroke-linecap="round" stroke-linejoin="round"></path>
    <path d="M100 180 Q130 200 160 182" stroke="#6E4A08" stroke-width="6" fill="none" stroke-linecap="round"></path>
    <circle cx="84" cy="176" r="9" fill="#FEB17B"></circle>
    <circle cx="176" cy="182" r="9" fill="#FEB17B"></circle>
  
</g>
</svg>