<svg xmlns="http://www.w3.org/2000/svg" viewBox="0 0 240 260" width="240" height="260" role="img" aria-label="Nepo – Cool">
<ellipse cx="120" cy="242" rx="58" ry="9" fill="#0E3A52" opacity="0.10"></ellipse>
<path d="M84 90 L74 52 L116 80 Z" fill="#1AA0E0"></path><path d="M156 90 L166 52 L124 80 Z" fill="#1AA0E0"></path>
<rect x="56" y="78" width="128" height="160" rx="62" fill="#29B6F6"></rect>
<ellipse cx="120" cy="216" rx="46" ry="22" fill="#1593CC"></ellipse>
<circle cx="80" cy="172" r="9" fill="#7FD0F5"></circle><circle cx="160" cy="172" r="9" fill="#7FD0F5"></circle>
<circle cx="120" cy="138" r="34" fill="#fff"></circle><circle cx="120" cy="140" r="15" fill="#10384F"></circle>
<circle cx="126" cy="134" r="5" fill="#fff"></circle>
<path d="M98 104 Q120 96 142 106" stroke="#10384F" stroke-width="6" fill="none" stroke-linecap="round"></path>
<path d="M100 200 Q122 208 148 190" stroke="#0E3A52" stroke-width="6" fill="none" stroke-linecap="round"></path>
<path d="M160 104 l2.5 7 7 2.5 -7 2.5 -2.5 7 -2.5 -7 -7 -2.5 7 -2.5 Z" fill="#DFF7FF"></path>
</svg>