<svg xmlns="http://www.w3.org/2000/svg" viewBox="0 0 230 200" width="230" height="200" role="img" aria-label="Pixel – Cool">
<ellipse cx="115" cy="182" rx="46" ry="7" fill="#3A1F4A" opacity="0.12"></ellipse>
<path d="M115 8 L115 56" stroke="#2D323C" stroke-width="2.5" stroke-linecap="round" opacity="0.55"></path>
<rect x="110" y="6" width="9" height="9" rx="1.5" fill="#C6F24E"></rect>
<rect x="112" y="8" width="2.5" height="2.5" fill="#fff" opacity="0.8"></rect>
<rect x="52" y="70" width="8" height="8" fill="#C6F24E" opacity="0.85"></rect>
<rect x="174" y="84" width="7" height="7" fill="#C6F24E" opacity="0.8"></rect>
<rect x="60" y="120" width="5" height="5" fill="#C6F24E" opacity="0.7"></rect>
<g stroke="#2D323C" stroke-width="6" fill="none" stroke-linecap="round" stroke-linejoin="round">
<path d="M90 104 Q58 92 46 78"></path><path d="M86 116 Q48 112 34 110"></path><path d="M86 130 Q50 138 38 152"></path><path d="M92 142 Q66 158 58 176"></path>
<path d="M140 104 Q172 92 184 78"></path><path d="M144 116 Q182 112 196 110"></path><path d="M144 130 Q180 138 192 152"></path><path d="M138 142 Q164 158 172 176"></path>
</g>
<g fill="#191B20"><circle cx="46" cy="78" r="4"></circle><circle cx="34" cy="110" r="4"></circle><circle cx="38" cy="152" r="4"></circle><circle cx="58" cy="176" r="4"></circle><circle cx="184" cy="78" r="4"></circle><circle cx="196" cy="110" r="4"></circle><circle cx="192" cy="152" r="4"></circle><circle cx="172" cy="176" r="4"></circle></g>
<ellipse cx="115" cy="146" rx="30" ry="26" fill="#2D323C"></ellipse>
<path d="M104 132 l5 5 -5 5 5 5 -5 5" stroke="#C6F24E" stroke-width="2.5" fill="none" stroke-linecap="round" opacity="0.7"></path>
<path d="M126 132 l-5 5 5 5 -5 5 5 5" stroke="#C6F24E" stroke-width="2.5" fill="none" stroke-linecap="round" opacity="0.7"></path>
<circle cx="115" cy="100" r="36" fill="#363B45"></circle>
<path d="M79 100 A36 36 0 0 0 151 100 Z" fill="#262A33"></path>
<circle cx="103" cy="80" r="3.6" fill="#C6F24E"></circle><circle cx="127" cy="80" r="3.6" fill="#C6F24E"></circle>
<circle cx="86" cy="110" r="2.5" fill="#C6F24E"></circle><circle cx="144" cy="108" r="2.5" fill="#C6F24E"></circle>
<circle cx="103" cy="98" r="13" fill="#fff"></circle><circle cx="104" cy="99" r="7" fill="#2A1A3A"></circle><circle cx="106" cy="95" r="2.6" fill="#fff"></circle>
<path d="M120 99 Q129 92 138 99" stroke="#2A1A3A" stroke-width="4" fill="none" stroke-linecap="round"></path>
<path d="M103 117 Q116 127 130 114 Q117 121 103 117 Z" fill="#14161A"></path>
<path d="M142 104 l1.6 -5 1.6 5 5 1.6 -5 1.6 -1.6 5 -1.6 -5 -5 -1.6 Z" fill="#C6F24E"></path>
</svg>