<svg xmlns="http://www.w3.org/2000/svg" viewBox="0 0 240 240" width="240" height="240" role="img" aria-label="Puff – Ueberrascht">
<ellipse cx="120" cy="212" rx="54" ry="8" fill="#7A2A1E" opacity="0.10"></ellipse>
<path d="M68 134 Q42 128 40 152 Q58 152 73 146 Z" fill="#FF8A78"></path>
<path d="M172 134 Q198 128 200 152 Q182 152 167 146 Z" fill="#FF8A78"></path>
<g stroke="#F2654F" stroke-width="9" stroke-linecap="round">
<path d="M120.0 68.0 L120.0 52.0"></path><path d="M140.7 72.1 L146.8 57.3"></path><path d="M158.2 83.8 L169.5 72.5"></path><path d="M169.9 101.3 L184.7 95.2"></path>
<path d="M174.0 122.0 L190.0 122.0"></path><path d="M169.9 142.7 L184.7 148.8"></path><path d="M158.2 160.2 L169.5 171.5"></path><path d="M140.7 171.9 L146.8 186.7"></path>
<path d="M120.0 176.0 L120.0 192.0"></path><path d="M99.3 171.9 L93.2 186.7"></path><path d="M81.8 160.2 L70.5 171.5"></path><path d="M70.1 142.7 L55.3 148.8"></path>
<path d="M66.0 122.0 L50.0 122.0"></path><path d="M70.1 101.3 L55.3 95.2"></path><path d="M81.8 83.8 L70.5 72.5"></path><path d="M99.3 72.1 L93.2 57.3"></path>
</g>
<circle cx="120" cy="122" r="58" fill="#FF7A6B"></circle>
<path d="M64 130 A56 56 0 0 0 176 130 Z" fill="#E85C4E"></path>
<ellipse cx="98" cy="92" rx="20" ry="13" fill="#fff" opacity="0.22" transform="rotate(-28 98 92)"></ellipse>
<circle cx="104" cy="152" r="3" fill="#FFB3A6"></circle><circle cx="120" cy="160" r="3" fill="#FFB3A6"></circle><circle cx="136" cy="152" r="3" fill="#FFB3A6"></circle>
<circle cx="100" cy="110" r="18" fill="#fff"></circle><circle cx="140" cy="110" r="18" fill="#fff"></circle>
<circle cx="100" cy="110" r="8" fill="#3A1714"></circle><circle cx="140" cy="110" r="8" fill="#3A1714"></circle>
<circle cx="103" cy="107" r="2.8" fill="#fff"></circle><circle cx="143" cy="107" r="2.8" fill="#fff"></circle>
<ellipse cx="120" cy="156" rx="10" ry="13" fill="#7A2A1E"></ellipse>
</svg>