<svg xmlns="http://www.w3.org/2000/svg" viewBox="0 0 260 300" width="260" height="300" role="img" aria-label="Rudolph – Froehlich">
<ellipse cx="130" cy="276" rx="44" ry="8" fill="#7A5410" opacity="0.12"></ellipse>
<path d="M112 80 L108 52" stroke="#B0743A" stroke-width="6" fill="none" stroke-linecap="round"></path>
<circle cx="108" cy="50" r="7.5" fill="#EFCF7E"></circle>
<path d="M148 80 L152 52" stroke="#B0743A" stroke-width="6" fill="none" stroke-linecap="round"></path>
<circle cx="152" cy="50" r="7.5" fill="#EFCF7E"></circle>
<path d="M70 150 Q40 158 38 182" stroke="#C9874A" stroke-width="19" fill="none" stroke-linecap="round"></path>
<path d="M190 150 Q220 158 222 182" stroke="#C9874A" stroke-width="19" fill="none" stroke-linecap="round"></path>
<rect x="68" y="78" width="124" height="150" rx="62" fill="#C9874A"></rect>
<ellipse cx="130" cy="178" rx="48" ry="30" fill="#B0743A" opacity="0.45"></ellipse>
<circle cx="92" cy="146" r="9" fill="#E0A05A"></circle>
<circle cx="168" cy="146" r="9" fill="#E0A05A"></circle>
<path d="M110 244 Q130 250 150 244" stroke="#C9874A" stroke-width="4" fill="none" stroke-linecap="round" opacity="0.4"></path>
<circle cx="46" cy="116" r="4" fill="#A4D037"></circle>
<circle cx="216" cy="122" r="4" fill="#EFCF7E"></circle>
<circle cx="202" cy="86" r="3" fill="#A4D037"></circle>
<circle cx="58" cy="84" r="3" fill="#EFCF7E"></circle>
<circle cx="112" cy="130" r="15" fill="#fff"></circle>
<circle cx="148" cy="130" r="15" fill="#fff"></circle>
<circle cx="113" cy="133" r="7.5" fill="#3A260C"></circle>
<circle cx="147" cy="133" r="7.5" fill="#3A260C"></circle>
<circle cx="116" cy="129" r="2.6" fill="#fff"></circle>
<circle cx="150" cy="129" r="2.6" fill="#fff"></circle>
<path d="M104 158 Q130 186 156 158 Q130 172 104 158 Z" fill="#6B4A12"></path>
<rect x="112" y="159" width="8" height="12" rx="2" fill="#fff"></rect>
<rect x="122" y="161" width="8" height="13" rx="2" fill="#fff"></rect>
<rect x="132" y="161" width="8" height="13" rx="2" fill="#fff"></rect>
<rect x="142" y="159" width="8" height="12" rx="2" fill="#fff"></rect>
</svg>