<svg xmlns="http://www.w3.org/2000/svg" viewBox="0 0 240 270" width="240" height="270" role="img" aria-label="Theo – Traurig">
<ellipse cx="120" cy="252" rx="58" ry="9" fill="#1E2566" opacity="0.10"></ellipse>
<circle cx="80" cy="88" r="18" fill="#5B6CF0"></circle>
<circle cx="160" cy="88" r="18" fill="#5B6CF0"></circle>
<path d="M118 80 C116 60 122 52 132 48 C126 58 129 68 124 80 Z" fill="#4453D8"></path>
<rect x="56" y="78" width="128" height="160" rx="62" fill="#5B6CF0"></rect>
<ellipse cx="120" cy="184" rx="58" ry="30" fill="#4453D8" opacity="0.5"></ellipse>
<path d="M84 120 L112 130" stroke="#232A6E" stroke-width="5.5" stroke-linecap="round"></path>
<path d="M156 120 L128 130" stroke="#232A6E" stroke-width="5.5" stroke-linecap="round"></path>
<circle cx="100" cy="148" r="13" fill="#fff"></circle>
<circle cx="140" cy="148" r="13" fill="#fff"></circle>
<circle cx="99" cy="153" r="6.5" fill="#1E2350"></circle>
<circle cx="139" cy="153" r="6.5" fill="#1E2350"></circle>
<circle cx="101" cy="150" r="2.2" fill="#fff"></circle>
<circle cx="141" cy="150" r="2.2" fill="#fff"></circle>
<path d="M87 148 A13 13 0 0 0 113 148 Z" fill="#5B6CF0"></path>
<path d="M127 148 A13 13 0 0 0 153 148 Z" fill="#5B6CF0"></path>
<circle cx="100" cy="146" r="20" fill="none" stroke="#232A6E" stroke-width="5"></circle>
<circle cx="140" cy="146" r="20" fill="none" stroke="#232A6E" stroke-width="5"></circle>
<path d="M119 143 Q120 139 121 143" stroke="#232A6E" stroke-width="5" fill="none" stroke-linecap="round"></path>
<path d="M80 142 L66 138" stroke="#232A6E" stroke-width="5" stroke-linecap="round"></path>
<path d="M160 142 L174 138" stroke="#232A6E" stroke-width="5" stroke-linecap="round"></path>
<path d="M150 158 Q144 172 151 176 Q158 172 152 158 Z" fill="#9FE0EC"></path>
<circle cx="78" cy="172" r="9" fill="#FF9FB0" opacity="0.6"></circle>
<circle cx="162" cy="172" r="9" fill="#FF9FB0" opacity="0.6"></circle>
<path d="M104 192 Q120 178 136 192" stroke="#1E2350" stroke-width="5.5" fill="none" stroke-linecap="round"></path>
</svg>