<svg xmlns="http://www.w3.org/2000/svg" viewBox="0 0 240 270" width="240" height="270" role="img" aria-label="Theo – Ueberrascht">
<ellipse cx="120" cy="252" rx="58" ry="9" fill="#1E2566" opacity="0.10"></ellipse>
<circle cx="80" cy="88" r="18" fill="#5B6CF0"></circle>
<circle cx="160" cy="88" r="18" fill="#5B6CF0"></circle>
<path d="M118 80 C116 60 122 52 132 48 C126 58 129 68 124 80 Z" fill="#4453D8"></path>
<rect x="56" y="78" width="128" height="160" rx="62" fill="#5B6CF0"></rect>
<ellipse cx="120" cy="184" rx="58" ry="30" fill="#4453D8" opacity="0.5"></ellipse>
<path d="M84 114 Q100 106 114 114" stroke="#232A6E" stroke-width="5" fill="none" stroke-linecap="round"></path>
<path d="M126 114 Q140 106 156 114" stroke="#232A6E" stroke-width="5" fill="none" stroke-linecap="round"></path>
<circle cx="100" cy="146" r="14" fill="#fff"></circle>
<circle cx="140" cy="146" r="14" fill="#fff"></circle>
<circle cx="100" cy="146" r="6" fill="#1E2350"></circle>
<circle cx="140" cy="146" r="6" fill="#1E2350"></circle>
<circle cx="102" cy="143" r="2.4" fill="#fff"></circle>
<circle cx="142" cy="143" r="2.4" fill="#fff"></circle>
<circle cx="100" cy="146" r="20" fill="none" stroke="#232A6E" stroke-width="5"></circle>
<circle cx="140" cy="146" r="20" fill="none" stroke="#232A6E" stroke-width="5"></circle>
<path d="M119 143 Q120 139 121 143" stroke="#232A6E" stroke-width="5" fill="none" stroke-linecap="round"></path>
<path d="M80 142 L66 138" stroke="#232A6E" stroke-width="5" stroke-linecap="round"></path>
<path d="M160 142 L174 138" stroke="#232A6E" stroke-width="5" stroke-linecap="round"></path>
<circle cx="78" cy="172" r="9" fill="#FF9FB0" opacity="0.6"></circle>
<circle cx="162" cy="172" r="9" fill="#FF9FB0" opacity="0.6"></circle>
<ellipse cx="120" cy="192" rx="9" ry="12" fill="#1E2350"></ellipse>
</svg>