<svg xmlns="http://www.w3.org/2000/svg" viewBox="0 0 260 300" width="260" height="300">
<g>

<path d="M112 80 L108 52" stroke="#B0743A" stroke-width="6" fill="none" stroke-linecap="round"></path>
<circle cx="108" cy="50" r="7.5" fill="#EFCF7E"></circle>
<path d="M148 80 L152 52" stroke="#B0743A" stroke-width="6" fill="none" stroke-linecap="round"></path>
<circle cx="152" cy="50" r="7.5" fill="#EFCF7E"></circle>
<path d="M70 150 Q40 158 38 182" stroke="#C9874A" stroke-width="19" fill="none" stroke-linecap="round"></path>
<path d="M190 150 Q220 158 222 182" stroke="#C9874A" stroke-width="19" fill="none" stroke-linecap="round"></path>
<rect x="68" y="78" width="124" height="150" rx="62" fill="#C9874A"></rect>
<ellipse cx="130" cy="178" rx="48" ry="30" fill="#BE7E43"></ellipse>
<circle cx="92" cy="146" r="9" fill="#E0A05A"></circle>
<circle cx="168" cy="146" r="9" fill="#E0A05A"></circle>
<circle cx="46" cy="116" r="4" fill="#A4D037"></circle>
<circle cx="216" cy="122" r="4" fill="#EFCF7E"></circle>
<circle cx="202" cy="86" r="3" fill="#A4D037"></circle>
<circle cx="58" cy="84" r="3" fill="#EFCF7E"></circle>
<circle cx="112" cy="132" r="16" fill="#fff"></circle>
<circle cx="148" cy="132" r="16" fill="#fff"></circle>
<circle cx="112" cy="133" r="7" fill="#3A260C"></circle>
<circle cx="148" cy="133" r="7" fill="#3A260C"></circle>
<circle cx="115" cy="130" r="2.6" fill="#fff"></circle>
<circle cx="151" cy="130" r="2.6" fill="#fff"></circle>
<path d="M116 166 L144 166" stroke="#6B4A12" stroke-width="5" fill="none" stroke-linecap="round"></path>
  
</g>
</svg>