<svg xmlns="http://www.w3.org/2000/svg" viewBox="0 0 260 270" width="260" height="270">
<defs>
<clipPath id="clipTank"><rect x="58" y="74" width="144" height="162" rx="66"></rect></clipPath>
</defs>
<g>

<path d="M74 80 L66 50 L104 76 Z" fill="#3DBE74"></path><path d="M186 80 L194 50 L156 76 Z" fill="#3DBE74"></path>
<rect x="58" y="74" width="144" height="162" rx="66" fill="#3DBE74"></rect>
<g clip-path="url(#clipTank)"><path d="M46 196 H214 V236 H46 Z" fill="#2A9E5C"></path></g>
<g clip-path="url(#clipTank)"><rect x="46" y="106" width="168" height="20" fill="#FF7A59"></rect></g>
<circle cx="80" cy="176" r="8" fill="#8FE0B0"></circle><circle cx="180" cy="176" r="8" fill="#8FE0B0"></circle>
<path d="M88 134 Q104 127 120 134" stroke="#114A2E" stroke-width="5" fill="none" stroke-linecap="round"></path>
<path d="M140 134 Q156 127 172 134" stroke="#114A2E" stroke-width="5" fill="none" stroke-linecap="round"></path>
<circle cx="104" cy="156" r="19" fill="#fff"></circle><circle cx="156" cy="156" r="19" fill="#fff"></circle>
<circle cx="104" cy="156" r="8" fill="#114A2E"></circle><circle cx="156" cy="156" r="8" fill="#114A2E"></circle>
<circle cx="107" cy="152" r="3" fill="#fff"></circle><circle cx="159" cy="152" r="3" fill="#fff"></circle>
<ellipse cx="130" cy="194" rx="9" ry="11" fill="#114A2E"></ellipse>
<path d="M196 92 Q189 104 196 109 Q203 104 196 92 Z" fill="#BFE9D2"></path>
  
</g>
</svg>