<svg xmlns="http://www.w3.org/2000/svg" viewBox="0 0 240 260" width="240" height="260">
<defs>
<clipPath id="clipBolt"><rect x="56" y="78" width="128" height="160" rx="62"></rect></clipPath>
</defs>
<g>

<path d="M84 90 L74 52 L116 80 Z" fill="#1AA0E0"></path><path d="M156 90 L166 52 L124 80 Z" fill="#1AA0E0"></path>
<rect x="56" y="78" width="128" height="160" rx="62" fill="#29B6F6"></rect>
<g clip-path="url(#clipBolt)"><path d="M56 196 H184 V238 H56 Z" fill="#1593CC"></path></g>
<circle cx="80" cy="172" r="9" fill="#7FD0F5"></circle><circle cx="160" cy="172" r="9" fill="#7FD0F5"></circle>
<circle cx="120" cy="138" r="34" fill="#fff"></circle><circle cx="120" cy="140" r="15" fill="#10384F"></circle>
<circle cx="126" cy="134" r="5" fill="#fff"></circle><circle cx="113" cy="146" r="2.5" fill="#fff"></circle>
<path d="M96 186 Q120 216 144 186 Z" fill="#0E3A52"></path>
<path d="M116 186 l4 8 4 -8 Z" fill="#fff"></path>
<path d="M111 202 Q120 211 129 202 Z" fill="#FF7AA0"></path>
  
</g>
</svg>