<svg xmlns="http://www.w3.org/2000/svg" viewBox="0 0 240 270" width="240" height="270">
<defs>
<clipPath id="clipUni"><rect x="58" y="74" width="124" height="166" rx="58"></rect></clipPath>
</defs>
<g>

<circle cx="78" cy="84" r="20" fill="#E8488F"></circle><circle cx="162" cy="84" r="20" fill="#E8488F"></circle>
<path d="M104 70 L120 18 L136 70 Z" fill="#FFC53D"></path>
<rect x="58" y="74" width="124" height="166" rx="58" fill="#E8488F"></rect>
<g clip-path="url(#clipUni)"><path d="M58 196 H182 V240 H58 Z" fill="#CE2E72"></path></g>
<circle cx="74" cy="170" r="11" fill="#F6A9CE"></circle><circle cx="166" cy="170" r="11" fill="#F6A9CE"></circle>
<path d="M82 132 Q98 126 114 132" stroke="#5A1840" stroke-width="5" fill="none" stroke-linecap="round"></path>
<path d="M124 120 Q142 110 162 118" stroke="#5A1840" stroke-width="5" fill="none" stroke-linecap="round"></path>
<path d="M84 150 Q98 161 112 150" stroke="#5A1840" stroke-width="6" fill="none" stroke-linecap="round"></path>
<circle cx="142" cy="146" r="20" fill="#fff"></circle>
<circle cx="142" cy="148" r="9" fill="#5A1840"></circle>
<circle cx="146" cy="144" r="3.4" fill="#fff"></circle>
<path d="M98 192 Q118 199 146 181" stroke="#5A1840" stroke-width="6" fill="none" stroke-linecap="round"></path>
<path d="M132 186 l2 8 6 -5 Z" fill="#fff"></path>
<path d="M150 36 l3 8 8 3 -8 3 -3 8 -3 -8 -8 -3 8 -3 Z" fill="#FFC53D"></path>
  
</g>
</svg>