<svg xmlns="http://www.w3.org/2000/svg" viewBox="0 0 240 270" width="240" height="270" role="img" aria-label="Stella – Froehlich">
<ellipse cx="120" cy="252" rx="56" ry="9" fill="#5A1840" opacity="0.10"></ellipse>
<circle cx="78" cy="84" r="20" fill="#E8488F"></circle><circle cx="162" cy="84" r="20" fill="#E8488F"></circle>
<path d="M104 70 L120 18 L136 70 Z" fill="#FFC53D"></path>
<rect x="58" y="74" width="124" height="166" rx="58" fill="#E8488F"></rect>
<ellipse cx="120" cy="220" rx="48" ry="22" fill="#CE2E72"></ellipse>
<circle cx="74" cy="170" r="11" fill="#F6A9CE"></circle><circle cx="166" cy="170" r="11" fill="#F6A9CE"></circle>
<circle cx="98" cy="144" r="22" fill="#fff"></circle><circle cx="142" cy="144" r="22" fill="#fff"></circle>
<circle cx="100" cy="148" r="10" fill="#5A1840"></circle><circle cx="140" cy="148" r="10" fill="#5A1840"></circle>
<circle cx="104" cy="143" r="4" fill="#fff"></circle><circle cx="144" cy="143" r="4" fill="#fff"></circle>
<circle cx="93" cy="152" r="2.5" fill="#fff"></circle><circle cx="135" cy="152" r="2.5" fill="#fff"></circle>
<path d="M96 178 Q120 208 144 178 Q120 192 96 178 Z" fill="#5A1840"></path>
<path d="M114 178 l2 8 4 -6 Z M120 178 l2 8 4 -6 Z" fill="#fff"></path>
<path d="M112 192 Q120 202 128 192 Z" fill="#FF9AA8"></path>
<path d="M148 34 l3 8 8 3 -8 3 -3 8 -3 -8 -8 -3 8 -3 Z" fill="#FFC53D"></path>
</svg>