<svg xmlns="http://www.w3.org/2000/svg" viewBox="0 0 240 240" width="240" height="240">
<defs>

<clipPath id="avClip"><circle cx="120" cy="120" r="120"></circle></clipPath>
</defs>
<circle cx="120" cy="120" r="120" fill="#F3E7D5"></circle>
<g clip-path="url(#avClip)">
<g transform="translate(120,120) scale(1.3) translate(-130,-142)">

    <path d="M112 80 L108 52" stroke="#B0743A" stroke-width="6" fill="none" stroke-linecap="round"></path>
    <circle cx="108" cy="50" r="7.5" fill="#EFCF7E"></circle>
    <path d="M148 80 L152 52" stroke="#B0743A" stroke-width="6" fill="none" stroke-linecap="round"></path>
    <circle cx="152" cy="50" r="7.5" fill="#EFCF7E"></circle>
    <path d="M70 150 Q40 158 38 182" stroke="#C9874A" stroke-width="19" fill="none" stroke-linecap="round"></path>
    <path d="M190 150 Q220 158 222 182" stroke="#C9874A" stroke-width="19" fill="none" stroke-linecap="round"></path>
    <rect x="68" y="78" width="124" height="150" rx="62" fill="#C9874A"></rect>
    <ellipse cx="130" cy="178" rx="48" ry="30" fill="#BE7E43"></ellipse>
    <circle cx="92" cy="146" r="9" fill="#E0A05A"></circle>
    <circle cx="168" cy="146" r="9" fill="#E0A05A"></circle>
    <path d="M96 130 Q110 140 124 130" stroke="#3A260C" stroke-width="5" fill="none" stroke-linecap="round"></path>
    <path d="M136 130 Q150 140 164 130" stroke="#3A260C" stroke-width="5" fill="none" stroke-linecap="round"></path>
    <path d="M106 160 Q130 180 154 160" stroke="#6B4A12" stroke-width="6" fill="none" stroke-linecap="round"></path>
    <path d="M110 244 Q130 250 150 244" stroke="#E2C19D" stroke-width="4" fill="none" stroke-linecap="round"></path>
    <circle cx="46" cy="116" r="4" fill="#A4D037"></circle>
    <circle cx="216" cy="122" r="4" fill="#EFCF7E"></circle>
    <circle cx="202" cy="86" r="3" fill="#A4D037"></circle>
    <circle cx="58" cy="84" r="3" fill="#EFCF7E"></circle>
  
</g>
</g>
</svg>