<svg xmlns="http://www.w3.org/2000/svg" viewBox="0 0 240 240" width="240" height="240">
<defs>
<clipPath id="clipMutFlat"><rect x="56" y="78" width="128" height="160" rx="62"></rect></clipPath>
<clipPath id="avClip"><circle cx="120" cy="120" r="120"></circle></clipPath>
</defs>
<circle cx="120" cy="120" r="120" fill="#E5E8FD"></circle>
<g clip-path="url(#avClip)">
<g transform="translate(120,120) scale(1.35) translate(-120,-148)">

    
    <circle cx="80" cy="88" r="18" fill="#7C8BF5"></circle>
    <circle cx="160" cy="88" r="18" fill="#7C8BF5"></circle>
    
    <rect x="56" y="78" width="128" height="160" rx="62" fill="#7C8BF5"></rect>
    <g clip-path="url(#clipMutFlat)"><path d="M56 196 H184 V238 H56 Z" fill="#5566E6"></path></g>
    
    <path d="M150 92 l-15 -8 0 17 Z" fill="#F272A8"></path>
    <path d="M150 92 l15 -8 0 17 Z" fill="#F272A8"></path>
    <circle cx="150" cy="93" r="5" fill="#DB4E8E"></circle>
    
    <path d="M84 116 Q98 109 110 115" stroke="#232A6E" stroke-width="6" fill="none" stroke-linecap="round"></path>
    <path d="M130 115 Q142 109 156 116" stroke="#232A6E" stroke-width="6" fill="none" stroke-linecap="round"></path>
    
    <circle cx="100" cy="146" r="17" fill="#fff"></circle>
    <circle cx="140" cy="146" r="17" fill="#fff"></circle>
    <circle cx="100" cy="147" r="7.5" fill="#1E2350"></circle>
    <circle cx="140" cy="147" r="7.5" fill="#1E2350"></circle>
    <circle cx="103" cy="144" r="2.8" fill="#fff"></circle>
    <circle cx="143" cy="144" r="2.8" fill="#fff"></circle>
    
    <circle cx="100" cy="146" r="20" fill="none" stroke="#232A6E" stroke-width="5"></circle>
    <circle cx="140" cy="146" r="20" fill="none" stroke="#232A6E" stroke-width="5"></circle>
    <path d="M119 143 Q120 139 121 143" stroke="#232A6E" stroke-width="5" fill="none" stroke-linecap="round"></path>
    <path d="M80 142 L66 138" stroke="#232A6E" stroke-width="5" stroke-linecap="round"></path>
    <path d="M160 142 L174 138" stroke="#232A6E" stroke-width="5" stroke-linecap="round"></path>
    
    <path d="M83 131 l-8 -5 M89 127 l-6 -6" stroke="#232A6E" stroke-width="3.4" stroke-linecap="round"></path>
    <path d="M157 131 l8 -5 M151 127 l6 -6" stroke="#232A6E" stroke-width="3.4" stroke-linecap="round"></path>
    
    <circle cx="76" cy="172" r="10" fill="#FF9FB0"></circle>
    <circle cx="164" cy="172" r="10" fill="#FF9FB0"></circle>
    
    <path d="M108 186 Q120 193 132 186" stroke="#1E2350" stroke-width="5.5" fill="none" stroke-linecap="round"></path>
  
</g>
</g>
</svg>