<svg xmlns="http://www.w3.org/2000/svg" viewBox="0 0 240 240" width="240" height="240">
<defs>
<clipPath id="clipVeeFlat"><rect x="66" y="76" width="98" height="180" rx="49"></rect></clipPath>
<clipPath id="avClip"><circle cx="120" cy="120" r="120"></circle></clipPath>
</defs>
<circle cx="120" cy="120" r="120" fill="#FFE9E2"></circle>
<g clip-path="url(#avClip)">
<g transform="translate(120,120) scale(1.3) translate(-115,-145)">

    <path d="M76 82 L68 50 L106 78 Z" fill="#FF6B4A"></path>
    <path d="M154 82 L162 50 L124 78 Z" fill="#FF6B4A"></path>
    <rect x="66" y="76" width="98" height="180" rx="49" fill="#FF6B4A"></rect>
    <g clip-path="url(#clipVeeFlat)"><path d="M66 206 H164 V256 H66 Z" fill="#E2502F"></path></g>
    <rect x="73" y="128" width="84" height="30" rx="15" fill="#26313F"></rect>
    <rect x="81" y="136" width="26" height="8" rx="4" fill="#41526A"></rect>
    <path d="M102 182 Q115 192 132 180" stroke="#7A2A14" stroke-width="6" fill="none" stroke-linecap="round"></path>
    <circle cx="150" cy="196" r="7" fill="#FFB59E"></circle>
    
    <path d="M56 126 Q56 54 115 54 Q174 54 174 126" stroke="#2B3543" stroke-width="10" fill="none" stroke-linecap="round"></path>
    <rect x="46" y="104" width="23" height="48" rx="11" fill="#2B3543"></rect>
    <rect x="161" y="104" width="23" height="48" rx="11" fill="#2B3543"></rect>
    <circle cx="57" cy="128" r="6.5" fill="#28C7C7"></circle>
    <circle cx="173" cy="128" r="6.5" fill="#28C7C7"></circle>
    <path d="M57 152 Q44 186 80 192" stroke="#2B3543" stroke-width="5" fill="none" stroke-linecap="round"></path>
    <circle cx="82" cy="192" r="5.5" fill="#28C7C7"></circle>
  
</g>
</g>
</svg>