<svg xmlns="http://www.w3.org/2000/svg" viewBox="0 0 240 240" width="240" height="240">
<defs>
<clipPath id="clipBoltFlat"><rect x="56" y="78" width="128" height="160" rx="62"></rect></clipPath>
<clipPath id="avClip"><circle cx="120" cy="120" r="120"></circle></clipPath>
</defs>
<circle cx="120" cy="120" r="120" fill="#E3F2FB"></circle>
<g clip-path="url(#avClip)">
<g transform="translate(120,120) scale(1.35) translate(-120,-142)">

    <path d="M84 90 L74 52 L116 80 Z" fill="#1AA0E0"></path>
    <path d="M156 90 L166 52 L124 80 Z" fill="#1AA0E0"></path>
    <rect x="56" y="78" width="128" height="160" rx="62" fill="#29B6F6"></rect>
    <g clip-path="url(#clipBoltFlat)"><path d="M56 196 H184 V238 H56 Z" fill="#1593CC"></path></g>
    <circle cx="120" cy="140" r="34" fill="#fff"></circle>
    <circle cx="120" cy="142" r="15" fill="#10384F"></circle>
    <circle cx="126" cy="136" r="5" fill="#fff"></circle>
    <path d="M150 178 Q132 190 116 178" stroke="#10384F" stroke-width="6" fill="none" stroke-linecap="round"></path>
    <path d="M124 182 l2 10 5 -7 Z" fill="#fff"></path>
  
</g>
</g>
</svg>