<svg xmlns="http://www.w3.org/2000/svg" viewBox="0 0 200 200" width="200" height="200">
<g>

      <path d="M84 64 L76 38 L100 62 Z" fill="#4650B0"></path>
      <path d="M116 64 L124 38 L100 62 Z" fill="#4650B0"></path>
      <path d="M86 60 L82 46 L93 60 Z" fill="#FFE29A"></path>
      <path d="M114 60 L118 46 L107 60 Z" fill="#FFE29A"></path>
      <ellipse cx="100" cy="98" rx="36" ry="38" fill="#4650B0"></ellipse>
      <path d="M66 92 Q56 128 96 138 Q76 118 76 94 Z" fill="#353D8C"></path>
      <path d="M134 92 Q144 128 104 138 Q124 118 124 94 Z" fill="#353D8C"></path>
      <path d="M80 92 Q86 98 92 92" stroke="#191F4A" stroke-width="4.5" fill="none" stroke-linecap="round"></path>
      <path d="M108 92 Q114 98 120 92" stroke="#191F4A" stroke-width="4.5" fill="none" stroke-linecap="round"></path>
      <path d="M95 110 Q100 114 105 110" stroke="#191F4A" stroke-width="4" fill="none" stroke-linecap="round"></path>
      <path d="M146 48 h14 l-14 14 h14" stroke="#191F4A" stroke-width="3.5" fill="none" stroke-linejoin="round" stroke-linecap="round"></path>
      <path d="M168 30 h9 l-9 9 h9" stroke="#191F4A" stroke-width="3" fill="none" stroke-linejoin="round" stroke-linecap="round"></path>
    
</g>
</svg>